<?xml version="1.0" encoding="UTF-8"?>
<svg version="1.1" xmlns="http://www.w3.org/2000/svg" width="1024" height="1024">
<path d="M0 0 C337.92 0 675.84 0 1024 0 C1024 337.92 1024 675.84 1024 1024 C686.08 1024 348.16 1024 0 1024 C0 686.08 0 348.16 0 0 Z " fill="#121212" transform="translate(0,0)"/>
<path d="M0 0 C6.93542601 5.15070538 13.44379166 10.59140468 19.76806641 16.48266602 C21.15951307 17.6960482 22.5551528 18.90464404 23.95556641 20.10766602 C30.42873214 25.76193729 36.23384848 31.9145832 41.76806641 38.48266602 C42.22987305 39.02536133 42.69167969 39.56805664 43.16748047 40.12719727 C59.22184085 59.07195102 72.10527998 79.9129322 81.10009766 103.11938477 C81.48427353 104.10751663 81.8684494 105.0956485 82.26426697 106.11372375 C86.56005953 117.32472688 90.21875458 128.72446847 93.83056641 140.17016602 C94.5605919 142.46221805 95.2910707 144.75412575 96.02197266 147.04589844 C99.78944217 158.89089029 103.48107705 170.75795088 107.10791016 182.64672852 C107.45974869 183.79839005 107.81158722 184.95005157 108.17408752 186.13661194 C109.84535489 191.61188935 111.50734659 197.08964801 113.15112305 202.57324219 C117.17919372 215.91339009 121.77093711 228.95262414 126.79193115 241.95095825 C127.62318202 244.10689336 128.44377245 246.26611873 129.25488281 248.4296875 C137.76966684 271.10606116 147.88656744 293.02524963 158.28369141 314.88891602 C168.26083213 335.93961947 176.87096765 355.63928753 169.03125 378.92285156 C165.11579011 389.46273868 158.49256585 397.48897947 150.76806641 405.48266602 C150.275 405.99619629 149.78193359 406.50972656 149.27392578 407.03881836 C142.95962821 413.58863689 136.5194657 419.71238119 129.38134766 425.37329102 C126.75544073 427.49285715 124.25942539 429.70709403 121.76806641 431.98266602 C117.54524081 435.82703083 113.18162068 439.44792136 108.74462891 443.04125977 C105.42022518 445.76796886 102.15202282 448.55339562 98.89306641 451.35766602 C94.34510697 455.27098318 89.78834944 459.1726554 85.20556641 463.04516602 C84.67261963 463.49561279 84.13967285 463.94605957 83.59057617 464.41015625 C81.44873354 466.2197391 79.30613968 468.02843131 77.16357422 469.8371582 C69.2575596 476.51281432 61.3845679 483.22557627 53.53417969 489.96655273 C50.61364365 492.47367587 47.69074329 494.97803929 44.76806641 497.48266602 C43.60138825 498.48265261 42.43472159 499.48265261 41.26806641 500.48266602 C34.26806641 506.48266601 34.26806641 506.48266601 32.51757812 507.98291016 C31.35230918 508.98182826 30.18726964 509.98101401 29.02246094 510.98046875 C26.08624292 513.4992792 23.14604198 516.01314608 20.19775391 518.51782227 C10.40495294 526.84921126 0.82413844 535.34668747 -8.23193359 544.48266602 C13.42923399 533.12597346 34.64994025 521.09047365 55.56298828 508.41381836 C60.61826321 505.36786889 65.70468517 502.37499701 70.78884888 499.37765503 C81.95571165 492.79081609 93.01551786 486.05254882 104.01611328 479.19262695 C109.19145563 475.97686242 114.38817414 472.79579563 119.58056641 469.60766602 C128.41166798 464.17900642 137.22535213 458.72329817 146.01806641 453.23266602 C147.01169189 452.61278809 148.00531738 451.99291016 149.02905273 451.35424805 C150.42353638 450.48195557 150.42353638 450.48195557 151.84619141 449.59204102 C152.71050781 449.05643555 153.57482422 448.52083008 154.46533203 447.96899414 C156.42266433 446.70561002 158.22641616 445.3604697 160.06494141 443.93579102 C162.76806641 442.48266602 162.76806641 442.48266602 165.50415039 443.18945312 C168.97393757 444.56423528 172.34182504 446.08538545 175.69384766 447.72094727 C176.35028763 448.03798111 177.0067276 448.35501495 177.68305969 448.68165588 C179.81783356 449.71488813 181.94949681 450.75431692 184.08056641 451.79516602 C184.81160583 452.15137024 185.54264526 452.50757446 186.2958374 452.87457275 C255.24313731 486.49524509 255.24313731 486.49524509 265.76806641 516.48266602 C265.0011696 529.61577374 248.57985622 541.85762438 239.86669922 550.56933594 C238.39600231 552.04222574 236.93353107 553.52296867 235.47119141 555.00415039 C229.99933748 560.5077073 224.35052516 565.64543833 218.26000977 570.47045898 C215.65370019 572.57501503 213.17629098 574.78368681 210.70556641 577.04516602 C205.88917806 581.41823625 200.89405564 585.47944887 195.76806641 589.48266602 C194.4464152 590.52298408 193.12480388 591.5633528 191.80322266 592.60375977 C136.092493 636.32854279 75.81727481 673.52196279 12.88037109 705.87817383 C10.08733051 707.3180752 7.30072818 708.76982395 4.51538086 710.22453308 C1.56425372 711.76039564 -1.39706468 713.27622074 -4.35693359 714.79516602 C-5.46584961 715.37709717 -6.57476563 715.95902832 -7.71728516 716.55859375 C-8.75594727 717.08654541 -9.79460937 717.61449707 -10.86474609 718.15844727 C-11.78143066 718.63193604 -12.69811523 719.1054248 -13.64257812 719.59326172 C-17.81619547 721.02683592 -21.06384516 719.69005049 -24.99755859 718.05688477 C-25.70895996 717.76168945 -26.42036133 717.46649414 -27.15332031 717.16235352 C-28.30598389 716.6712207 -28.30598389 716.6712207 -29.48193359 716.17016602 C-30.72160889 715.64229492 -30.72160889 715.64229492 -31.98632812 715.10375977 C-62.34122788 702.00882979 -90.85128929 685.82256248 -118.9453125 668.50366211 C-123.08492548 665.95814761 -127.24143867 663.44113757 -131.39868164 660.92456055 C-142.42817413 654.24233029 -153.35520737 647.41015658 -164.23193359 640.48266602 C-165.99748607 639.3601561 -167.76311349 638.23776406 -169.52880859 637.11547852 C-174.16963303 634.16470833 -178.80840552 631.21072701 -183.44677734 628.25610352 C-186.17650676 626.51795884 -188.90716544 624.78128496 -191.63818359 623.04516602 C-196.21441721 620.13603036 -200.78851875 617.22356301 -205.36181641 614.30981445 C-207.30572399 613.07230133 -209.25040942 611.83600937 -211.19580078 610.60083008 C-223.91213391 602.52651214 -236.53040387 594.3267811 -249.03997803 585.9369812 C-256.06432696 581.2272234 -263.12622248 576.61091968 -270.34008789 572.19628906 C-277.4015022 567.83402175 -284.21464927 563.10016831 -291.04956055 558.39404297 C-291.95279053 557.77231201 -292.85602051 557.15058105 -293.78662109 556.51000977 C-295.00067627 555.67070923 -295.00067627 555.67070923 -296.23925781 554.81445312 C-298.18449428 553.45422566 -298.18449428 553.45422566 -300.23193359 552.48266602 C-292.41478153 567.59740113 -281.73583343 580.03351567 -270.23193359 592.48266602 C-269.37083984 593.4352832 -268.50974609 594.38790039 -267.62255859 595.36938477 C-259.627652 604.20690925 -251.45792832 612.87176644 -242.38037109 620.61547852 C-240.19938918 622.51095007 -238.0772042 624.46308357 -235.95947266 626.42871094 C-230.72239688 631.28803315 -225.36057012 635.90527323 -219.79052734 640.38500977 C-217.49059102 642.27060642 -215.29559965 644.22043753 -213.10693359 646.23266602 C-206.83618213 651.87409476 -200.01708525 656.83920121 -193.29199219 661.91918945 C-191.47759671 663.29622058 -189.67360944 664.68480816 -187.87646484 666.08422852 C-180.33588846 671.95230697 -172.64171173 677.5769057 -164.87646484 683.14282227 C-161.9002705 685.27645234 -158.93937821 687.42827497 -155.99365234 689.60375977 C-133.12751396 706.43486244 -108.98676209 721.5928989 -84.23193359 735.48266602 C-87.98891521 736.73499322 -89.64947048 736.06199943 -93.45458984 735.04125977 C-95.33126343 734.54190918 -95.33126343 734.54190918 -97.24584961 734.0324707 C-98.59563469 733.66263951 -99.94515756 733.29185011 -101.29443359 732.92016602 C-102.31958572 732.64082214 -102.31958572 732.64082214 -103.365448 732.35583496 C-154.9830401 718.27989252 -202.90589362 693.26137361 -248.44995117 665.56323242 C-250.39413556 664.38430927 -252.34330151 663.21385814 -254.29248047 662.04321289 C-265.23474667 655.44517343 -275.9260853 648.50874858 -286.54541016 641.40405273 C-289.2265575 639.61126083 -291.91256602 637.82593488 -294.59912109 636.04125977 C-305.36772003 628.86646145 -315.95027297 621.47821728 -326.38903809 613.83172607 C-328.78049387 612.08110187 -331.18233953 610.34495066 -333.58349609 608.60766602 C-343.14680373 601.63359305 -352.43224175 594.39820252 -361.55566406 586.85913086 C-363.79956671 585.0165554 -366.07714357 583.2180492 -368.35693359 581.42016602 C-383.17840355 569.577886 -397.04204108 556.73217504 -410.54443359 543.42016602 C-411.38055176 542.60547852 -412.21666992 541.79079102 -413.078125 540.95141602 C-428.56432976 525.5483876 -428.56432976 525.5483876 -429.23193359 516.48266602 C-422.37294614 496.85898667 -406.80083855 484.26517857 -389.23193359 474.48266602 C-388.01666992 473.80397461 -388.01666992 473.80397461 -386.77685547 473.11157227 C-372.7385815 465.30430309 -358.54615202 457.77118189 -344.23193359 450.48266602 C-343.38034668 450.04809082 -342.52875977 449.61351562 -341.65136719 449.16577148 C-339.31172258 447.98230627 -336.96256131 446.82142628 -334.60693359 445.67016602 C-333.58635864 445.15437988 -333.58635864 445.15437988 -332.54516602 444.62817383 C-328.57256107 442.72975188 -326.42479101 442.214219 -322.23193359 443.48266602 C-319.53491211 445.02636719 -319.53491211 445.02636719 -316.61083984 447.02563477 C-315.52230713 447.76241455 -314.43377441 448.49919434 -313.31225586 449.25830078 C-312.73935822 449.65123322 -312.16646057 450.04416565 -311.57620239 450.44900513 C-308.53596048 452.53267868 -305.47618662 454.58739073 -302.41943359 456.64672852 C-301.49699608 457.26974602 -301.49699608 457.26974602 -300.55592346 457.90534973 C-284.26948785 468.89288951 -267.46132933 479.06078815 -250.64497375 489.20909119 C-246.46799787 491.7312285 -242.30074815 494.26885687 -238.13818359 496.81469727 C-223.7514143 505.60762235 -209.25846007 514.18799367 -194.61474609 522.54858398 C-191.62027171 524.26063841 -188.62944459 525.97877302 -185.64038086 527.70024109 C-183.11679314 529.15325313 -180.591743 530.60371075 -178.06640625 532.05368042 C-176.86509293 532.743888 -175.66422885 533.43487819 -174.46386719 534.1267395 C-167.49094905 538.14351542 -160.48148855 541.98676042 -153.23193359 545.48266602 C-165.61427396 533.62375145 -165.61427396 533.62375145 -178.69287109 522.55297852 C-181.46829346 520.28994182 -184.0981175 517.9087445 -186.73193359 515.48266602 C-191.20178479 511.36887693 -195.82238252 507.51179305 -200.54833984 503.69750977 C-204.03744275 500.81785715 -207.3619028 497.77572726 -210.70458984 494.72875977 C-213.30155752 492.42079004 -215.96597372 490.22710739 -218.66943359 488.04516602 C-222.47280862 484.96930014 -226.13276011 481.79513436 -229.73193359 478.48266602 C-234.09962852 474.46660755 -238.60042595 470.68881147 -243.21630859 466.96313477 C-246.77863209 464.03298526 -250.25672206 461.01512538 -253.73193359 457.98266602 C-258.11400722 454.15944318 -262.52253233 450.39112079 -267.04443359 446.73266602 C-271.40275655 443.20480637 -275.56151347 439.50530806 -279.70458984 435.72875977 C-282.30155752 433.42079004 -284.96597372 431.22710739 -287.66943359 429.04516602 C-292.49641104 425.13858681 -297.09714204 421.03479637 -301.66552734 416.83032227 C-303.90752315 414.77942503 -306.17984388 412.77789068 -308.48193359 410.79516602 C-309.73506055 409.69454944 -310.98522856 408.59055165 -312.23193359 407.48266602 C-313.08851563 406.72663086 -313.08851563 406.72663086 -313.96240234 405.95532227 C-326.87663919 393.86854224 -334.86811976 377.54153254 -335.60693359 359.85766602 C-335.1922338 341.79518596 -326.34889168 325.881196 -318.63842773 310.02050781 C-308.07369388 288.25419764 -298.72634905 266.25681944 -290.41943359 243.54516602 C-290.1106427 242.7013739 -289.80185181 241.85758179 -289.48370361 240.98822021 C-282.42758193 221.64364926 -276.04482398 202.12358511 -270.09359741 182.41278076 C-243.54300769 94.64143917 -211.81686979 23.08534448 -127.98364258 -23.09643555 C-79.93495029 -48.57316867 -40.93275192 -30.0246648 0 0 Z " fill="#FEFEFE" transform="translate(593.23193359375,160.517333984375)"/>
<path d="M0 0 C5.58124212 4.63396708 11.08256643 9.35902016 16.5546875 14.12109375 C17.43253906 14.88421875 18.31039063 15.64734375 19.21484375 16.43359375 C29.91624353 25.89954737 39.69419602 35.90955975 48.5546875 47.12109375 C49.53511773 48.31467566 50.51837287 49.50594075 51.50390625 50.6953125 C59.92528664 60.882487 67.82782975 71.39979866 75.5546875 82.12109375 C76.08481445 82.85505371 76.61494141 83.58901367 77.16113281 84.34521484 C120.13691922 144.01285059 120.13691922 144.01285059 117.5546875 178.12109375 C113.54866412 201.37227001 91.16528596 219.46190381 73.5546875 233.12109375 C70.77189196 235.39832154 68.00889262 237.69936205 65.2421875 239.99609375 C59.92794158 244.39029466 54.56546417 248.70692404 49.1171875 252.93359375 C44.20516898 256.74899482 39.54342656 260.74649747 34.9609375 264.95703125 C32.48987244 267.17938521 29.95102383 269.28122613 27.3671875 271.37109375 C16.98590933 279.78755374 6.99251031 288.64190578 -2.8203125 297.7109375 C-4.98145679 299.69520242 -7.16370958 301.63999435 -9.3828125 303.55859375 C-17.08182717 310.24288473 -24.60927763 317.16137512 -31.74072266 324.44897461 C-33.41000852 326.08646228 -35.13834685 327.5939394 -36.921875 329.10546875 C-41.99998469 333.52503563 -46.74358509 338.26901921 -51.4909668 343.03637695 C-53.0052383 344.55601043 -54.5247868 346.07021892 -56.04492188 347.58398438 C-63.93281606 355.46511489 -71.16658533 363.72058364 -78.1953125 372.37109375 C-93.65444886 391.26051799 -93.65444886 391.26051799 -99.4453125 395.12109375 C-105.0944824 388.5431435 -110.64704848 381.92362603 -115.9453125 375.05859375 C-120.2858658 369.45356772 -124.88911427 364.20085076 -129.7421875 359.03515625 C-131.69840396 356.92628706 -133.57118668 354.80446992 -135.43359375 352.6171875 C-140.37688828 346.94239813 -145.7412589 341.67600694 -151.06958008 336.36645508 C-152.87892183 334.5624729 -154.68285569 332.7532071 -156.48632812 330.94335938 C-161.78622939 325.64072061 -167.08608802 320.4154748 -172.79711914 315.55102539 C-175.31641451 313.36534728 -177.61506062 311.00749628 -179.9453125 308.62109375 C-183.60242426 304.91431518 -187.33495821 301.36803884 -191.296875 297.98828125 C-193.47768284 296.09296098 -195.59969801 294.14098089 -197.71728516 292.17553711 C-202.90326152 287.36350991 -208.21658744 282.80518953 -213.73046875 278.3671875 C-216.55204745 276.03278785 -219.25121962 273.60118777 -221.9453125 271.12109375 C-226.33425996 267.08599354 -230.85394016 263.28279071 -235.4921875 259.5390625 C-238.87889901 256.76608046 -242.19476085 253.91873091 -245.5078125 251.05859375 C-250.1430607 247.06423195 -254.83261605 243.16787216 -259.62890625 239.3671875 C-270.56735075 230.64374008 -281.29784672 221.75893791 -291.4453125 212.12109375 C-292.26644531 211.36441406 -293.08757812 210.60773438 -293.93359375 209.828125 C-304.20766905 200.0720703 -312.04917111 187.36353671 -312.68359375 172.93359375 C-313.72323373 128.5386564 -273.64112905 84.3619052 -246.77270508 51.95068359 C-245.32549955 50.19120473 -243.89143679 48.42072317 -242.47827148 46.63378906 C-236.94860714 39.68508944 -230.98796915 33.35350356 -224.68945312 27.10449219 C-223.07184963 25.49762068 -221.46524337 23.88030881 -219.859375 22.26171875 C-213.36478996 15.75888618 -206.65225559 9.83503073 -199.4453125 4.12109375 C-197.60922108 2.5618357 -195.77526286 1.00005442 -193.9453125 -0.56640625 C-119.79205877 -62.29707881 -73.74527737 -59.71629363 0 0 Z " fill="#121212" transform="translate(609.4453125,344.87890625)"/>
<path d="M0 0 C11.4908935 4.63773361 22.81330976 9.55535169 34.0625 14.75 C35.58589783 15.4510281 37.10941841 16.15178948 38.63305664 16.85229492 C40.91992827 17.90383105 43.206655 18.95567154 45.49272156 20.00895691 C50.14100216 22.14985593 54.79723878 24.27179816 59.4609375 26.37890625 C60.56687256 26.8800293 61.67280762 27.38115234 62.81225586 27.89746094 C64.83749789 28.8144442 66.86426467 29.72807031 68.89282227 30.63769531 C69.78283936 31.04213867 70.67285645 31.44658203 71.58984375 31.86328125 C72.35159912 32.20657471 73.11335449 32.54986816 73.89819336 32.90356445 C76.13084815 34.06825869 78.02915639 35.43822573 80 37 C65.38301504 45.90857663 52.44629183 51.14497241 35 49 C30.57248941 47.90523261 26.91165676 46.32794185 23 44 C22.20464844 43.52691406 21.40929687 43.05382812 20.58984375 42.56640625 C8.85401381 34.49424878 2.75963857 21.57631234 0 8 C-0.09551637 5.32817182 -0.03455353 2.67485996 0 0 Z " fill="#FCFCFC" transform="translate(403,404)"/>
<path d="M0 0 C0.22504089 5.26459288 -0.46684062 9.76310872 -2.0625 14.75 C-2.39531982 15.79498657 -2.39531982 15.79498657 -2.73486328 16.86108398 C-6.96056538 29.39810378 -15.05112155 40.02556078 -27 46 C-36.9677868 50.54574892 -49.7972117 50.6644704 -60.1875 47.4375 C-78.90843023 40.18313953 -78.90843023 40.18313953 -81 36 C-63.38271178 27.87469047 -45.76506382 19.75074721 -28.0625 11.8125 C-26.94206299 11.30952393 -25.82162598 10.80654785 -24.66723633 10.28833008 C-1.65690748 0 -1.65690748 0 0 0 Z " fill="#FCFCFC" transform="translate(621,404)"/>
<path d="M0 0 C7.42192021 1.42729235 11.53806605 5.22480181 16 11 C10.71494579 9.50934368 5.39143743 7.34673758 1 4 C0.23828125 1.8359375 0.23828125 1.8359375 0 0 Z " fill="#181818" transform="translate(425,696)"/>
<path d="M0 0 C4.26319402 3.56716234 8.2711146 7.22690266 12.16015625 11.1953125 C14.78962976 13.77454129 17.58413176 16.14530034 20.3984375 18.51953125 C22 20 22 20 23 22 C19.07088276 20.37771532 16.24124631 17.68273253 13.1875 14.8125 C12.39617676 14.07592163 12.39617676 14.07592163 11.58886719 13.32446289 C10.05316269 11.88927124 8.52520228 10.44633917 7 9 C6.22785156 8.27039063 5.45570313 7.54078125 4.66015625 6.7890625 C1.14023285 3.37711221 1.14023285 3.37711221 0 2 C0 1.34 0 0.68 0 0 Z " fill="#080808" transform="translate(273,560)"/>
<path d="M0 0 C5.41342681 1.14514798 7.9342948 2.34012809 11 7 C9.02 6.34 7.04 5.68 5 5 C5.33 5.66 5.66 6.32 6 7 C3.5625 6.3125 3.5625 6.3125 1 5 C0.1875 2.375 0.1875 2.375 0 0 Z " fill="#090809" transform="translate(421,692)"/>
<path d="M0 0 C0.66 0.33 1.32 0.66 2 1 C-5.4375 10.04560811 -5.4375 10.04560811 -11 12 C-7.49102731 7.81576108 -3.91939465 3.80411834 0 0 Z " fill="#080808" transform="translate(595,694)"/>
<path d="M0 0 C0.66 0.33 1.32 0.66 2 1 C0.68 2.32 -0.64 3.64 -2 5 C-2 2 -2 2 0 0 Z M-3 5 C-2.01 5.66 -1.02 6.32 0 7 C-2.297221 8.74271938 -4.59866729 10.39911152 -7 12 C-7 9 -7 9 -5 6.8125 C-4.34 6.214375 -3.68 5.61625 -3 5 Z " fill="#1E1E1E" transform="translate(599,690)"/>
<path d="M0 0 C0.99 0.33 1.98 0.66 3 1 C1.21024844 2.48148332 -0.58186057 3.96011906 -2.375 5.4375 C-3.87160156 6.67306641 -3.87160156 6.67306641 -5.3984375 7.93359375 C-8 10 -8 10 -10 11 C-8.56285993 7.64170896 -6.79022601 5.60029302 -4.0625 3.1875 C-3.02802734 2.24970703 -3.02802734 2.24970703 -1.97265625 1.29296875 C-1.32167969 0.86628906 -0.67070313 0.43960938 0 0 Z " fill="#0B0B0B" transform="translate(647,649)"/>
<path d="M0 0 C-0.75 1.9375 -0.75 1.9375 -2 4 C-4 4.875 -4 4.875 -6 5 C-6.66 4.34 -7.32 3.68 -8 3 C-2.25 0 -2.25 0 0 0 Z " fill="#181818" transform="translate(613,863)"/>
<path d="M0 0 C0.33 0 0.66 0 1 0 C2.25 7.625 2.25 7.625 0 11 C-1.28571429 3.57142857 -1.28571429 3.57142857 0 0 Z " fill="#1C1B1C" transform="translate(258,526)"/>
<path d="M0 0 C0.99 0.33 1.98 0.66 3 1 C2.01 1.66 1.02 2.32 0 3 C-0.33 3.99 -0.66 4.98 -1 6 C-2.32 6 -3.64 6 -5 6 C-3.63016497 2.83884224 -3.0109362 2.0072908 0 0 Z " fill="#090808" transform="translate(752,777)"/>
<path d="M0 0 C0.66 0 1.32 0 2 0 C3.6875 1.75 3.6875 1.75 5 4 C4.6875 6.25 4.6875 6.25 4 8 C1.84622436 5.37801226 0.59927826 3.35595828 0 0 Z " fill="#1B1B1B" transform="translate(753,479)"/>
<path d="M0 0 C1.98 1.65 3.96 3.3 6 5 C5.01 5.495 5.01 5.495 4 6 C1.375 4.5625 1.375 4.5625 -1 3 C-0.67 2.01 -0.34 1.02 0 0 Z " fill="#1F1E1F" transform="translate(435,701)"/>
</svg>
