<?xml version="1.0" encoding="UTF-8"?>
<svg version="1.1" xmlns="http://www.w3.org/2000/svg" width="16" height="16">
<path d="M0 0 C5.28 0 10.56 0 16 0 C16 5.28 16 10.56 16 16 C10.72 16 5.44 16 0 16 C0 10.72 0 5.44 0 0 Z " fill="#43B528" transform="translate(0,0)"/>
<path d="M0 0 C1.32 0 2.64 0 4 0 C4 5.28 4 10.56 4 16 C-1.28 16 -6.56 16 -12 16 C-12 14.02 -12 12.04 -12 10 C-9.525 10.495 -9.525 10.495 -7 11 C-6.67 9.35 -6.34 7.7 -6 6 C-3.33333333 7.33333333 -0.66666667 8.66666667 2 10 C2 7.03 2 4.06 2 1 C1.34 0.67 0.68 0.34 0 0 Z " fill="#BD6B28" transform="translate(12,0)"/>
</svg>
